<svg xmlns="http://www.w3.org/2000/svg" viewBox="0 0 414.62 258.12"><defs><style>.cls-1{isolation:isolate;}.cls-2{fill:#febc27;}.cls-3{fill:#eee;}.cls-4{fill:#798599;}.cls-5{fill:#647182;}.cls-10,.cls-6{fill:#515c6d;}.cls-7{fill:#ffac1a;}.cls-8{fill:#ffe817;}.cls-9{fill:#fff;}.cls-10{opacity:0.29;mix-blend-mode:multiply;}.cls-11{fill:#b0bbc1;}.cls-12{fill:#0b7881;}.cls-13{fill:none;stroke:#0b7881;stroke-miterlimit:10;stroke-width:1.1px;}</style></defs><title>404</title><g class="cls-1"><g id="OBJECTS"><g id="_Group_" data-name="&lt;Group&gt;"><g id="_Group_2" data-name="&lt;Group&gt;"><g id="_Group_3" data-name="&lt;Group&gt;"><path id="_Compound_Path_" data-name="&lt;Compound Path&gt;" class="cls-2" d="M115.21,119.08l-35,84.16H94.44V174.91h44.28v28.33h16.79v34.63H138.72v28.54H94.44V237.87H31.69V206.39l37.78-87.31Z" transform="translate(-12.64 -9.55)"/><path id="_Compound_Path_2" data-name="&lt;Compound Path&gt;" class="cls-2" d="M205.08,182.19a.39.39,0,0,0-.2.06,5.4,5.4,0,0,0-.79.31,2,2,0,0,0-.43.17c-.31.15-.61.3-.89.47a7,7,0,0,0-3.34,6.27v.17a10.73,10.73,0,0,0,.07,1.14l7.95-1.68c0-2.65.06-5.14.15-7.49A15,15,0,0,0,205.08,182.19Zm73.44-12.75c-.11-.65-.22-1.29-.37-1.94-2.06-10.42-5.53-19.3-10.33-26.53,0,0,0,0,0,0a49.35,49.35,0,0,0-4.82-6.27,0,0,0,0,0,0,0c-.88-1-1.77-1.88-2.72-2.76a44.89,44.89,0,0,0-7.08-5.54s0,0-.09,0a3.24,3.24,0,0,0-.71-.45,32.53,32.53,0,0,0-3.12-1.79c-1-.52-2-1-3-1.44a53.56,53.56,0,0,0-8.29-2.84,68,68,0,0,0-16.84-2,62.61,62.61,0,0,0-25.91,5.09s0,0,0,0a23.83,23.83,0,0,0-2.35,1.1,46.32,46.32,0,0,0-7.3,4.61,43.94,43.94,0,0,0-4.89,4.28l0,0c-7.67,7.69-13.1,18.27-16.18,31.47-.26,1.14-.51,2.3-.73,3.51a130.31,130.31,0,0,0-2.2,24.83A135.43,135.43,0,0,0,163,213.68a97,97,0,0,0,3.25,14.13,70.67,70.67,0,0,0,3.88,9.8,58.37,58.37,0,0,0,3.4,6.09,50.33,50.33,0,0,0,8.38,10.1c9.76,9.13,22.92,13.87,39.18,13.87,14.06,0,25.82-3.62,35.06-10.59a42.24,42.24,0,0,0,3.92-3.32,50.88,50.88,0,0,0,8.36-10.12,57.07,57.07,0,0,0,3.4-6.12,71.44,71.44,0,0,0,3.88-9.82A94.83,94.83,0,0,0,279,213.61a137.21,137.21,0,0,0,1.51-20.87A130.44,130.44,0,0,0,278.52,169.44Zm-70,46.91c-.32-2.54-.56-5.36-.73-8.51,0-.24,0-.49,0-.75-.13-2.46-.22-5.09-.26-7.93,0-.49,0-1,0-1.53,0-1.38-.05-2.8-.05-4.28v-.61c0-.9,0-1.78,0-2.67,0-.32,0-.64,0-1,0-2.65.06-5.14.15-7.49q.09-2.43.21-4.65c.17-3.06.41-5.8.73-8.27.16-1.12.31-2.18.48-3.19s.32-1.75.49-2.54a25.58,25.58,0,0,1,2.83-7.58s0,0,0,0a10,10,0,0,1,2.84-3.12l0,0a9.89,9.89,0,0,1,5.84-1.66c5.86,0,9.39,3.6,11.37,12.41.17.79.34,1.65.5,2.54s.32,2.07.47,3.19c.11.92.21,1.87.3,2.88.15,1.49.28,3.06.37,4.74.15,2.2.26,4.54.32,7.09,0,.32,0,.64,0,1,.07,2.63.09,5.41.09,8.38v1c0,1.34,0,2.65-.05,3.92s0,2.44,0,3.6-.06,2.35-.11,3.45c0,.81-.06,1.61-.1,2.39,0,.34,0,.69-.07,1-.15,3-.39,5.77-.69,8.23-1.05,8.57-3,13.82-6.09,16.47a9.22,9.22,0,0,1-6.29,2.13,9.56,9.56,0,0,1-6.38-2.11C211.5,230.2,209.56,224.94,208.5,216.35Zm-3.42-34.16a.39.39,0,0,0-.2.06,5.4,5.4,0,0,0-.79.31,2,2,0,0,0-.43.17c-.31.15-.61.3-.89.47a7,7,0,0,0-3.34,6.27v.17a10.73,10.73,0,0,0,.07,1.14l7.95-1.68c0-2.65.06-5.14.15-7.49A15,15,0,0,0,205.08,182.19Z" transform="translate(-12.64 -9.55)"/><path id="_Compound_Path_3" data-name="&lt;Compound Path&gt;" class="cls-2" d="M374.34,119.08l-35,84.16h14.27V174.91h44.28v28.33h16.79v34.63H397.84v28.54H353.56V237.87H290.81V206.39l37.78-87.31Z" transform="translate(-12.64 -9.55)"/></g><g id="_Group_4" data-name="&lt;Group&gt;"><path id="_Path_" data-name="&lt;Path&gt;" class="cls-3" d="M279,213.61a94.83,94.83,0,0,1-3.27,14.09,71.44,71.44,0,0,1-3.88,9.82,57.07,57.07,0,0,1-3.4,6.12A50.88,50.88,0,0,1,260,253.76a42.24,42.24,0,0,1-3.92,3.32c-9.24,7-21,10.59-35.06,10.59-16.26,0-29.42-4.74-39.18-13.87a50.33,50.33,0,0,1-8.38-10.1,58.37,58.37,0,0,1-3.4-6.09,70.67,70.67,0,0,1-3.88-9.8A97,97,0,0,1,163,213.68a18.86,18.86,0,0,1,6.44-7.41h0a19,19,0,0,1,4.83-2.35l11.22-3.57,2.65-.87h0l4.63-1.46,8.1-2.58h0l6.52-2.09,1.06-.35,12.38-3.94,13.64,4.33.82.28h0l2.75.86,11.14,3.55,4.74,1.51h0l6.18,2,7.52,2.39a19,19,0,0,1,4.17,1.92h0A19,19,0,0,1,279,213.61Z" transform="translate(-12.64 -9.55)"/><path id="_Path_2" data-name="&lt;Path&gt;" class="cls-4" d="M256.12,222v35c-9.24,7-21,10.59-35.06,10.59-16.26,0-29.42-4.74-39.18-13.87a50.33,50.33,0,0,1-8.38-10.1,58.37,58.37,0,0,1-3.4-6.09,70.67,70.67,0,0,1-3.88-9.8A97,97,0,0,1,163,213.68a18.86,18.86,0,0,1,6.44-7.41,19.11,19.11,0,0,1,4.85-2.35l11.22-3.57,2.67-.87,4.63-1.46,8.1-2.58,6.54-2.09,1.06-.35,12.36,3.94,1.21.37,12.36,3.94,3.53,1.12,4.94,1.57a16.07,16.07,0,0,1,2.24.89,17.28,17.28,0,0,1,3.14,1.83h0a18.83,18.83,0,0,1,6.16,7.6A18.58,18.58,0,0,1,256.12,222Z" transform="translate(-12.64 -9.55)"/><ellipse id="_Path_3" data-name="&lt;Path&gt;" class="cls-3" cx="208.11" cy="197.41" rx="51.47" ry="9.66"/><path id="_Path_4" data-name="&lt;Path&gt;" class="cls-3" d="M268.4,243.64A50.88,50.88,0,0,1,260,253.76l-3.92.45A332.23,332.23,0,0,1,220.76,256a323.35,323.35,0,0,1-38.88-2.2,50.33,50.33,0,0,1-8.38-10.1c.61.11,1.21.22,1.86.32,12.49,2.07,28.62,3.21,45.4,3.21a318.7,318.7,0,0,0,35.36-1.85c3.53-.39,6.89-.84,10-1.36Z" transform="translate(-12.64 -9.55)"/><g id="_Group_5" data-name="&lt;Group&gt;"><path id="_Path_5" data-name="&lt;Path&gt;" class="cls-4" d="M225.63,83.87l-4.94.22c0-9.36,7-13.64,13.44-13.56S246.62,75,246.57,82.94L246,83c-.73-7.48-6.67-10.26-11.7-9.67S225,77.83,225.63,83.87Z" transform="translate(-12.64 -9.55)"/><path id="_Path_6" data-name="&lt;Path&gt;" class="cls-5" d="M246.57,82.94l-.6,0a12.58,12.58,0,0,0-1.07-4,9.58,9.58,0,0,0-2.72-3.46,10.73,10.73,0,0,0-7.92-2.16c-5.11.59-9.31,4.53-8.63,10.57l-4.94.23a15.51,15.51,0,0,1,.07-1.55c.71-8.3,7.29-12.09,13.37-12a13.11,13.11,0,0,1,8.29,2.91A11.83,11.83,0,0,1,246.57,82.94Z" transform="translate(-12.64 -9.55)"/><path id="_Path_7" data-name="&lt;Path&gt;" class="cls-4" d="M244.9,78.92a9.58,9.58,0,0,0-2.72-3.46,10.41,10.41,0,0,0-9.39-3.63c-5.11.59-9.31,4.53-8.64,10.57l-3.39.15c.71-8.3,7.29-12.09,13.37-12a13.11,13.11,0,0,1,8.29,2.91A11.72,11.72,0,0,1,244.9,78.92Z" transform="translate(-12.64 -9.55)"/></g><path id="_Path_8" data-name="&lt;Path&gt;" class="cls-6" d="M230,91.94H215.71v-2.6a7.14,7.14,0,0,1,7.14-7.14h0A7.15,7.15,0,0,1,230,89.34Z" transform="translate(-12.64 -9.55)"/><circle id="_Path_9" data-name="&lt;Path&gt;" class="cls-7" cx="233.65" cy="73.51" r="3.08"/><path id="_Path_10" data-name="&lt;Path&gt;" class="cls-3" d="M260.23,201.55h-.07a1,1,0,0,1,0,.3c0,3.61-16.73,6.54-37.36,6.54-1.87,0-3.7,0-5.49-.07-18-.46-31.88-3.18-31.88-6.47a1.54,1.54,0,0,1,0-.3h0V123.66a37.39,37.39,0,0,1,31.88-37,38.25,38.25,0,0,1,5.49-.4,37.39,37.39,0,0,1,37.38,37.38Z" transform="translate(-12.64 -9.55)"/><path id="_Path_11" data-name="&lt;Path&gt;" class="cls-5" d="M249.24,201.55h-.07a1,1,0,0,1,0,.3c0,3.29-13.84,6-31.86,6.47-1.91,0-3.77-.12-5.58-.22-15.23-.82-26.3-3.31-26.3-6.25a1.54,1.54,0,0,1,0-.3h0V123.66A37.38,37.38,0,0,1,211.79,88a36.63,36.63,0,0,1,5.57-1.27,37.4,37.4,0,0,1,31.88,37Z" transform="translate(-12.64 -9.55)"/><path id="_Path_12" data-name="&lt;Path&gt;" class="cls-4" d="M238.09,201.55H238a1,1,0,0,1,0,.3c0,2.7-9.34,5-22.67,6-1.18.09-2.38.17-3.62.24-15.23-.82-26.3-3.31-26.3-6.25a1.54,1.54,0,0,1,0-.3h0V123.66A37.38,37.38,0,0,1,211.79,88a35.22,35.22,0,0,1,3.64,1.35,37.39,37.39,0,0,1,22.66,34.36Z" transform="translate(-12.64 -9.55)"/><path id="_Path_13" data-name="&lt;Path&gt;" class="cls-4" d="M238.09,201.55H238a1,1,0,0,1,0,.3c0,2.7-9.34,5-22.67,6-13.3-1-22.61-3.32-22.61-6a1.53,1.53,0,0,1,0-.3h0V123.66A37.37,37.37,0,0,1,215.43,89.3a37.39,37.39,0,0,1,22.66,34.36Z" transform="translate(-12.64 -9.55)"/><path id="_Path_14" data-name="&lt;Path&gt;" class="cls-3" d="M260.23,127.86v38.79a20.72,20.72,0,0,1-9,2h-48.8a20.71,20.71,0,0,1-20.7-20.7v-1.48a20.7,20.7,0,0,1,20.7-20.69h48.8A20.57,20.57,0,0,1,260.23,127.86Z" transform="translate(-12.64 -9.55)"/><rect id="_Rectangle_" data-name="&lt;Rectangle&gt;" class="cls-5" x="165.12" y="113.08" width="90.19" height="42.87" rx="20.7" ry="20.7"/><path id="_Path_15" data-name="&lt;Path&gt;" class="cls-6" d="M246.58,163H199.13a18.88,18.88,0,0,1-18.89-18.88h0a18.88,18.88,0,0,1,18.89-18.88h47.45a18.88,18.88,0,0,1,18.88,18.88h0A18.88,18.88,0,0,1,246.58,163Z" transform="translate(-12.64 -9.55)"/><g id="_Group_6" data-name="&lt;Group&gt;"><circle id="_Path_16" data-name="&lt;Path&gt;" class="cls-7" cx="189.44" cy="133.7" r="15.9"/><circle id="_Path_17" data-name="&lt;Path&gt;" class="cls-8" cx="189.44" cy="133.7" r="12.78"/><g id="_Group_7" data-name="&lt;Group&gt;"><rect id="_Rectangle_2" data-name="&lt;Rectangle&gt;" class="cls-6" x="200.89" y="135.74" width="2.38" height="15.02" transform="translate(147.84 -110.49) rotate(45)"/><rect id="_Rectangle_3" data-name="&lt;Rectangle&gt;" class="cls-6" x="200.89" y="135.74" width="2.38" height="15.02" transform="translate(-54.74 175.3) rotate(-45)"/></g></g><g id="_Group_8" data-name="&lt;Group&gt;"><circle id="_Path_18" data-name="&lt;Path&gt;" class="cls-7" cx="230.43" cy="133.7" r="15.9"/><circle id="_Path_19" data-name="&lt;Path&gt;" class="cls-8" cx="230.43" cy="133.7" r="12.31"/><g id="_Group_9" data-name="&lt;Group&gt;"><rect id="_Rectangle_4" data-name="&lt;Rectangle&gt;" class="cls-6" x="241.74" y="134.88" width="2.66" height="16.74" transform="translate(159.84 -139.47) rotate(45)"/><rect id="_Rectangle_5" data-name="&lt;Rectangle&gt;" class="cls-6" x="241.74" y="134.88" width="2.66" height="16.74" transform="translate(-42.74 204.28) rotate(-45)"/></g></g><path id="_Path_20" data-name="&lt;Path&gt;" class="cls-9" d="M248.82,185.23h0c0,4.06-2.2,6.3-5.49,7.4a20.25,20.25,0,0,1-5.64.9c-.55,0-1.1,0-1.64.06a52.37,52.37,0,0,0-10.34,2c-2.46.67-4.92,1.41-7.38,2a50.52,50.52,0,0,1-6.87,1.35,28.64,28.64,0,0,1-3.33.22c-4,.14-7.52-3.2-9.48-7.26-.06-.12-.12-.24-.17-.36s-.16-.34-.23-.52a15.45,15.45,0,0,1-1.26-5.81h0a1,1,0,0,1,0-.17,7,7,0,0,1,3.35-6.25,16.11,16.11,0,0,1,7.78-1.88l.78,0a43,43,0,0,0,9.23-1.5c2.65-.67,5.31-1.48,8-2.2a62.75,62.75,0,0,1,7.28-1.59,32.78,32.78,0,0,1,4.3-.34,7.2,7.2,0,0,1,3.1.59c3.1,1.29,5.64,4.55,7,8.09.07.18.15.38.21.57s.19.6.27.91a14.09,14.09,0,0,1,.56,3.61A1.15,1.15,0,0,1,248.82,185.23Z" transform="translate(-12.64 -9.55)"/><path id="_Path_21" data-name="&lt;Path&gt;" class="cls-10" d="M247.78,180a11.59,11.59,0,0,0-4.56-3.72,7.45,7.45,0,0,0-3.1-.59,31.16,31.16,0,0,0-4.3.35,61.6,61.6,0,0,0-7.28,1.59c-2.65.72-5.31,1.52-8,2.2a44.09,44.09,0,0,1-9.23,1.5l-.78,0a16.17,16.17,0,0,0-7.78,1.88,7,7,0,0,0-3.35,6.25v.17h0a15,15,0,0,0,1,5.26,16.6,16.6,0,0,1-2-3.32,15.72,15.72,0,0,1-1.49-6.33h0a1,1,0,0,1,0-.17,7,7,0,0,1,3.35-6.25,16.11,16.11,0,0,1,7.78-1.88l.78,0a43,43,0,0,0,9.23-1.5c2.65-.67,5.31-1.48,8-2.2a62.75,62.75,0,0,1,7.28-1.59,32.78,32.78,0,0,1,4.3-.34,7.2,7.2,0,0,1,3.1.59c3.1,1.29,5.64,4.55,7,8.09Z" transform="translate(-12.64 -9.55)"/><polygon id="_Path_22" data-name="&lt;Path&gt;" class="cls-6" points="150.09 135.98 149.18 134.28 152.89 132.2 146.38 133.02 147.29 134.72 143.59 136.79 150.09 135.98"/><polygon id="_Path_23" data-name="&lt;Path&gt;" class="cls-6" points="217.71 47.33 215.83 46.9 216.71 42.75 213.04 48.18 214.92 48.61 214.04 52.77 217.71 47.33"/><polygon id="_Path_24" data-name="&lt;Path&gt;" class="cls-6" points="158.27 98.84 157.35 100.82 152.97 98.88 158.11 104.2 159.03 102.23 163.41 104.16 158.27 98.84"/><polygon id="_Path_25" data-name="&lt;Path&gt;" class="cls-6" points="179.58 73.14 181.28 71.77 184.35 75.45 182.09 68.4 180.4 69.77 177.32 66.09 179.58 73.14"/><polygon id="_Path_26" data-name="&lt;Path&gt;" class="cls-6" points="253.75 82.63 255.29 84.17 251.97 87.62 258.73 84.62 257.19 83.08 260.52 79.64 253.75 82.63"/><polygon id="_Path_27" data-name="&lt;Path&gt;" class="cls-6" points="264.32 115 263.88 117.13 259.18 116.24 265.4 120.25 265.84 118.12 270.55 119.01 264.32 115"/><g id="_Group_10" data-name="&lt;Group&gt;"><path id="_Path_28" data-name="&lt;Path&gt;" class="cls-11" d="M248.25,181.44l-49.6,10.49c-.06-.12-.12-.24-.17-.36s-.16-.34-.23-.52L248,180.53C248.08,180.83,248.17,181.13,248.25,181.44Z" transform="translate(-12.64 -9.55)"/></g></g></g><path id="_Path_29" data-name="&lt;Path&gt;" class="cls-12" d="M298.53,118.37a1.85,1.85,0,1,1-1.84-1.84A1.84,1.84,0,0,1,298.53,118.37Z" transform="translate(-12.64 -9.55)"/><path id="_Path_30" data-name="&lt;Path&gt;" class="cls-12" d="M137.4,105.09a2.3,2.3,0,1,1-2.3-2.3A2.3,2.3,0,0,1,137.4,105.09Z" transform="translate(-12.64 -9.55)"/><path id="_Path_31" data-name="&lt;Path&gt;" class="cls-12" d="M312.29,249.56a2.3,2.3,0,1,1-2.3-2.3A2.3,2.3,0,0,1,312.29,249.56Z" transform="translate(-12.64 -9.55)"/><circle id="_Path_32" data-name="&lt;Path&gt;" class="cls-12" cx="2.3" cy="169.6" r="2.3"/><path id="_Path_33" data-name="&lt;Path&gt;" class="cls-12" d="M52.65,77.57a2.3,2.3,0,1,1-2.3-2.31A2.3,2.3,0,0,1,52.65,77.57Z" transform="translate(-12.64 -9.55)"/><path id="_Path_34" data-name="&lt;Path&gt;" class="cls-12" d="M325.43,32.45a1.36,1.36,0,1,1-1.36-1.36A1.36,1.36,0,0,1,325.43,32.45Z" transform="translate(-12.64 -9.55)"/><circle id="_Path_35" data-name="&lt;Path&gt;" class="cls-12" cx="134.32" cy="12.98" r="1.36"/><circle id="_Path_36" data-name="&lt;Path&gt;" class="cls-12" cx="362.07" cy="72.4" r="1.36"/><circle id="_Path_37" data-name="&lt;Path&gt;" class="cls-12" cx="249.27" cy="1.36" r="1.36"/><g id="_Group_11" data-name="&lt;Group&gt;"><path id="_Compound_Path_4" data-name="&lt;Compound Path&gt;" class="cls-12" d="M325.23,72.15c0-.33,0-.65-.05-1l7.89-2.56L330,59.19l-7.89,2.57A18.91,18.91,0,0,0,321,60.22l4.92-6.77-8-5.82L313,54.42c-.57-.21-1.15-.4-1.75-.56V45.38h-9.9v8.48a16.41,16.41,0,0,0-1.72.55l-5-6.91-8,5.82,5,6.86c-.38.47-.74,1-1.07,1.45L282.36,59l-3.06,9.42L287.35,71c0,.37-.06.74-.06,1.12,0,.23,0,.46,0,.69l-8.09,2.63,3.06,9.42,8-2.58a17.5,17.5,0,0,0,1.08,1.52l-4.95,6.81,8,5.82,4.86-6.69a17.88,17.88,0,0,0,1.83.62V98.7H311V90.5c.64-.17,1.27-.37,1.88-.59l4.85,6.68,8-5.83-4.81-6.61a18.19,18.19,0,0,0,1.17-1.6L330,85.09,333,75.67l-7.83-2.54C325.2,72.8,325.23,72.48,325.23,72.15Zm-7.23,0a11.74,11.74,0,1,1-11.74-11.74A11.74,11.74,0,0,1,318,72.15Z" transform="translate(-12.64 -9.55)"/></g><g id="_Group_12" data-name="&lt;Group&gt;"><path id="_Compound_Path_5" data-name="&lt;Compound Path&gt;" class="cls-12" d="M117.83,51.53V44.8l-8.31-1c-.09-.39-.19-.78-.3-1.16l6.71-5-3.37-5.83-7.68,3.32-.84-.84,3.32-7.68-5.83-3.37-5,6.71c-.38-.11-.77-.21-1.16-.3l-1-8.31H87.7l-1,8.31c-.39.09-.78.19-1.16.3l-5-6.71-5.82,3.37,3.32,7.68q-.44.42-.84.84l-7.68-3.32L66.2,37.7l6.71,5c-.12.38-.21.77-.3,1.16l-8.31,1v6.73l8.31,1c.09.39.18.78.3,1.16l-6.71,5,3.37,5.82,7.68-3.32q.41.44.84.84l-3.32,7.69L80.59,73l5-6.71c.38.12.77.21,1.16.3l1,8.31h6.73l1-8.31c.39-.09.78-.18,1.16-.3l5,6.71,5.83-3.36L104,62c.29-.27.56-.55.84-.84l7.68,3.32,3.37-5.82-6.71-5c.11-.38.21-.77.3-1.16Zm-17.26-3.36a9.51,9.51,0,1,1-9.51-9.51A9.51,9.51,0,0,1,100.57,48.17Z" transform="translate(-12.64 -9.55)"/></g><g id="_Group_13" data-name="&lt;Group&gt;"><path id="_Compound_Path_6" data-name="&lt;Compound Path&gt;" class="cls-12" d="M425.75,116.49v-3.87l-4.78-.55c-.05-.23-.11-.45-.17-.67l3.85-2.86-1.93-3.35-4.42,1.91a5.44,5.44,0,0,0-.48-.48l1.91-4.42-3.35-1.94-2.86,3.86c-.22-.07-.45-.12-.67-.17l-.55-4.78h-3.87l-.56,4.78c-.22,0-.44.1-.66.17l-2.87-3.86L401,102.2l1.91,4.42c-.17.15-.33.31-.49.48L398,105.19l-1.94,3.35,3.86,2.86c-.07.22-.12.44-.17.67l-4.78.55v3.87l4.78.55c.05.23.1.45.17.67l-3.86,2.86,1.94,3.35,4.41-1.91c.16.17.32.33.49.48L401,126.91l3.34,1.94,2.87-3.86c.22.07.44.12.66.17l.56,4.78h3.87l.55-4.78c.22,0,.45-.1.67-.17l2.86,3.86,3.35-1.94-1.91-4.42a5.44,5.44,0,0,0,.48-.48l4.42,1.91,1.93-3.35-3.85-2.86c.06-.22.12-.44.17-.67Zm-9.92-1.93a5.47,5.47,0,1,1-5.47-5.47A5.47,5.47,0,0,1,415.83,114.56Z" transform="translate(-12.64 -9.55)"/></g><g id="_Group_14" data-name="&lt;Group&gt;"><path id="_Compound_Path_7" data-name="&lt;Compound Path&gt;" class="cls-12" d="M165.11,74.23v-2.6l-3.21-.37c0-.15-.07-.3-.11-.45l2.59-1.92-1.3-2.25-3,1.29c-.1-.12-.21-.22-.32-.33l1.28-3-2.25-1.3-1.92,2.59c-.15-.05-.3-.08-.45-.12l-.37-3.21h-2.59l-.38,3.21c-.15,0-.3.07-.44.12l-1.93-2.59-2.24,1.3,1.28,3c-.11.11-.22.21-.32.33l-3-1.29-1.3,2.25,2.59,1.92-.12.45-3.2.37v2.6l3.2.37.12.45L145.19,77l1.3,2.25,3-1.28c.1.11.21.22.32.32l-1.28,3,2.24,1.29,1.93-2.58.44.11.38,3.21h2.59l.37-3.21.45-.11,1.92,2.58,2.25-1.29-1.28-3c.11-.1.22-.21.32-.32l3,1.28,1.3-2.25-2.59-1.92c0-.15.08-.3.11-.45Zm-6.66-1.3a3.67,3.67,0,1,1-3.67-3.67A3.67,3.67,0,0,1,158.45,72.93Z" transform="translate(-12.64 -9.55)"/></g><g id="_Group_15" data-name="&lt;Group&gt;"><path id="_Compound_Path_8" data-name="&lt;Compound Path&gt;" class="cls-12" d="M217.72,28.3V25.7l-3.2-.37-.12-.45L217,23l-1.3-2.25-3,1.29c-.1-.12-.21-.22-.32-.33l1.28-3-2.24-1.3L209.51,20c-.14-.05-.29-.08-.44-.12l-.38-3.21H206.1l-.37,3.21-.45.12-1.92-2.59-2.25,1.3,1.28,3c-.11.11-.22.21-.32.33l-3-1.29L197.8,23l2.59,1.92c0,.15-.08.3-.11.45l-3.21.37v2.6l3.21.37c0,.15.07.3.11.45L197.8,31l1.3,2.25,3-1.28c.1.11.21.22.32.32l-1.28,3,2.25,1.29L205.28,34l.45.11.37,3.21h2.59l.38-3.21.44-.11,1.93,2.58,2.24-1.29-1.28-3c.11-.1.22-.21.32-.32l3,1.28L217,31l-2.59-1.92.12-.45ZM211.07,27a3.67,3.67,0,1,1-3.67-3.67A3.67,3.67,0,0,1,211.07,27Z" transform="translate(-12.64 -9.55)"/></g></g><path class="cls-13" d="M360.92,40.55a5.24,5.24,0,1,1-5.23-5.23A5.23,5.23,0,0,1,360.92,40.55Z" transform="translate(-12.64 -9.55)"/><path class="cls-13" d="M164.31,38.35a2.67,2.67,0,1,1-2.67-2.67A2.67,2.67,0,0,1,164.31,38.35Z" transform="translate(-12.64 -9.55)"/><circle class="cls-13" cx="411.4" cy="154.48" r="2.66"/><path class="cls-13" d="M29.8,123.24a2.67,2.67,0,1,1-2.66-2.66A2.67,2.67,0,0,1,29.8,123.24Z" transform="translate(-12.64 -9.55)"/></g></g></svg>