<?xml version="1.0" encoding="iso-8859-1"?>
<!-- Generator: Adobe Illustrator 22.0.1, SVG Export Plug-In . SVG Version: 6.00 Build 0)  -->
<svg version="1.1" id="Capa_1" xmlns="http://www.w3.org/2000/svg" xmlns:xlink="http://www.w3.org/1999/xlink" x="0px" y="0px"
	 viewBox="-49 141 512 512" style="enable-background:new -49 141 512 512;" xml:space="preserve">
<path d="M273.4,330.92c60.8,0,70.8-120.48,71.2-125.6c0.182-4.36-3.164-8.062-7.52-8.32c-69.6-3.76-113.12,6.4-130.08,30.32
	c-16.96-24-60.48-34.08-130.08-30.32c-4.261,0.213-7.605,3.733-7.6,8c0.4,5.12,10.4,125.6,71.2,125.6
	c17.145-1.277,33.342-8.36,45.92-20.08c9.157,13.961,13.717,30.437,13.04,47.12c-0.732,8.807-0.893,17.652-0.48,26.48h-88
	c-7.909,0-14.32,6.411-14.32,14.32v32.48c0.131,7.815,6.504,14.081,14.32,14.08h2.88l12.32,138.8c0,7.909,6.411,14.32,14.32,14.32h0
	h132.96c7.654,0.091,13.98-5.949,14.24-13.6L300.2,445h2.8c7.909,0,14.32-6.411,14.32-14.32l0,0v-32.32
	c-0.044-7.877-6.442-14.24-14.32-14.24h-88c-1.438-24.794,3.376-49.552,14-72C241.299,323.147,256.922,329.762,273.4,330.92
	L273.4,330.92z M132.36,242.92c-4.242-1.236-8.683,1.201-9.919,5.443c-1.235,4.24,1.199,8.679,5.439,9.917
	c19.76,5.76,40,29.12,48.56,40c-9.769,9.344-22.387,15.147-35.84,16.48c-35.2,0-50.4-67.84-54.48-102.64
	c62.56-2.4,100.64,7.36,110.32,28c7.28,15.52-2.4,34.96-9.28,45.84c-10.56-12.96-32-36.4-54.72-43.04L132.36,242.92z M271.88,582.12
	H142.04L129.8,445h154.4L271.88,582.12z M301.4,400.12V429H112.6v-28.88H301.4z M208.44,318.04
	c-2.634-6.807-6.245-13.194-10.72-18.96c3.513-5.079,6.616-10.429,9.28-16c2.805,5.84,6.097,11.433,9.84,16.72
	C213.48,305.606,210.667,311.712,208.44,318.04z M217.56,240.28c9.68-20.64,48-30.48,110.32-28c-4.08,34.8-19.2,102.64-54.48,102.64
	c-10.64,0-22.96-5.84-36.8-17.28c5.84-10.72,20.72-34.32,40-39.28c4.286-1.105,6.865-5.474,5.76-9.76
	c-1.105-4.286-5.474-6.865-9.76-5.76c-22.08,5.68-38.4,27.68-46.88,41.6C219,273.32,210.68,255,217.56,240.28L217.56,240.28z"/>
</svg>
